<?xml version="1.0" encoding="UTF-8"?><svg xmlns="http://www.w3.org/2000/svg" viewBox="0 0 36 36">
 <g id="change1_1"><path d="m15 30v3s0 3 3 3 3-3 3-3v-3h-6z" fill="#DD2E44"/></g>
 <g id="change2_1"><path d="m14 2c0.041-3-14-2-14 8 0 4 0 14 3 14 4 0 10.945-18 11-22zm8 0c-0.041-3 14-2 14 8 0 4 0 14-3 14-4 0-10.945-18-11-22z" fill="#272B2B"/></g>
 <g id="change3_1"><path d="m31 22c0 7-4 7-4 7h-18s-4 0-4-7 1-22 13-22 13 22 13 22z" fill="#CCD6DD"/></g>
 <g id="change4_1"><path d="m23 22.025v-0.025h-10v0.025c-2.803 0.253-5 2.606-5 5.475 0 3.037 2.462 5.5 5.5 5.5 1.862 0 3.505-0.928 4.5-2.344 0.995 1.416 2.638 2.344 4.5 2.344 3.038 0 5.5-2.463 5.5-5.5 0-2.868-2.196-5.222-5-5.475z" fill="#8899A6"/></g>
 <g id="change2_2"><path d="m11 16s0-2 2-2 2 2 2 2v2s0 2-2 2-2-2-2-2v-2zm10 0s0-2 2-2 2 2 2 2v2s0 2-2 2-2-2-2-2v-2zm-6 8c-1 1 2 4 3 4s4-3 3-4-5-1-6 0z" fill="#272B2B"/></g>
</svg>